<?xml version="1.0" encoding="UTF-8" standalone="no"?>
<svg
   xmlns:dc="http://purl.org/dc/elements/1.1/"
   xmlns:cc="http://creativecommons.org/ns#"
   xmlns:rdf="http://www.w3.org/1999/02/22-rdf-syntax-ns#"
   xmlns:svg="http://www.w3.org/2000/svg"
   xmlns="http://www.w3.org/2000/svg"
   xmlns:sodipodi="http://sodipodi.sourceforge.net/DTD/sodipodi-0.dtd"
   xmlns:inkscape="http://www.inkscape.org/namespaces/inkscape"
   version="1.1"
   x="0px"
   y="0px"
   viewBox="0 0 1000 1000"
   enable-background="new 0 0 1000 1000"
   xml:space="preserve"
   id="svg12"
   sodipodi:docname="b0f26b3d9ef57383a6d25265bb7974b0.svg"
   inkscape:version="1.0.1 (3bc2e813f5, 2020-09-07)"><style
   id="style841"></style><defs
   id="defs16"><rect
     x="371.74721"
     y="598.51301"
     width="100.37175"
     height="282.52788"
     id="rect849" /><filter
     y="-0.25"
     height="1.5"
     inkscape:menu-tooltip="Darkens the edge with an inner blur and adds a flexible glow"
     inkscape:menu="Shadows and Glows"
     inkscape:label="Dark and Glow"
     style="color-interpolation-filters:sRGB;"
     id="filter951"><feGaussianBlur
       stdDeviation="5"
       result="result6"
       id="feGaussianBlur941" /><feComposite
       result="result8"
       in="SourceGraphic"
       operator="atop"
       in2="result6"
       id="feComposite943" /><feComposite
       result="result9"
       operator="over"
       in2="SourceAlpha"
       in="result8"
       id="feComposite945" /><feColorMatrix
       values="1 0 0 0 0 0 1 0 0 0 0 0 1 0 0 0 0 0 1 0 "
       result="result10"
       id="feColorMatrix947" /><feBlend
       in="result10"
       mode="normal"
       in2="result6"
       id="feBlend949" /></filter></defs><sodipodi:namedview
   pagecolor="#ffffff"
   bordercolor="#666666"
   borderopacity="1"
   objecttolerance="10"
   gridtolerance="10"
   guidetolerance="10"
   inkscape:pageopacity="0"
   inkscape:pageshadow="2"
   inkscape:window-width="1366"
   inkscape:window-height="705"
   id="namedview14"
   showgrid="false"
   inkscape:zoom="0.538"
   inkscape:cx="500"
   inkscape:cy="500"
   inkscape:window-x="-8"
   inkscape:window-y="-8"
   inkscape:window-maximized="1"
   inkscape:current-layer="svg12" />
<metadata
   id="metadata2"> Svg Vector Icons : http://www.onlinewebfonts.com/icon <rdf:RDF><cc:Work
     rdf:about=""><dc:format>image/svg+xml</dc:format><dc:type
       rdf:resource="http://purl.org/dc/dcmitype/StillImage" /></cc:Work></rdf:RDF></metadata>
<g
   id="g10"><g
     transform="translate(0.000000,512.000000) scale(0.100000,-0.100000)"
     id="g8"><path
       d="M1131.1,4130.1c-299.8-490.1-547.8-903.3-555.4-920.6c-7.7-21.1,46.1-73,188.3-178.8c332.5-251.8,603.5-549.7,665-736.1c55.7-163.4,26.9-269.1-246-876.4C765.9,488.1,608.4,71,525.7-340.3c-61.5-305.6-61.5-782.2,0-1070.5c153.8-716.9,503.5-1295.4,1020.6-1683.6c419-315.2,970.6-534.3,1993.1-789.9c753.4-188.3,936-286.3,1266.5-676.5c101.9-121.1,188.3-219.1,192.2-219.1s86.5,92.3,182.6,207.6c349.8,411.3,505.5,493.9,1278.1,688c1233.9,309.5,1791.2,561.2,2248.7,1016.7c641.9,638.1,941.8,1635.6,761.1,2529.3c-80.7,399.8-209.5,749.6-590,1604.8c-345.9,778.4-369,859.1-311.3,1028.2c61.5,186.4,332.5,484.3,665,736.1c142.2,107.6,196,157.6,186.4,178.8c-5.8,17.3-253.7,430.5-553.5,920.6L8323,5020h-3325h-3325L1131.1,4130.1z M8132.8,3811.1c140.3-226.8,255.6-420.9,257.6-430.5c0-9.6-51.9-71.1-115.3-140.3c-236.4-251.8-388.2-488.2-472.8-736.1c-28.8-82.6-36.5-157.6-34.6-355.6c1.9-313.3,25-394,315.2-1037.9c543.9-1210.8,643.8-1524.1,641.9-2008.4c-1.9-213.3-11.5-292.1-51.9-445.9c-136.5-518.9-399.8-922.5-761.1-1168.6c-173-115.3-511.2-272.9-789.9-365.2c-132.6-44.2-486.3-144.2-788-221c-724.6-186.4-947.5-271-1228.1-459.4c-55.7-38.4-105.7-69.2-109.6-69.2s-67.3,40.4-142.2,88.4c-274.8,176.8-557.4,280.6-1268.5,459.3c-738,186.5-1193.5,359.4-1501,567c-543.9,370.9-887.9,1149.3-807.2,1833.5c44.2,386.3,173,755.3,588.1,1683.6c299.8,672.7,355.6,832.2,369,1066.7c15.4,247.9-15.4,405.5-128.8,634.2c-86.5,180.7-301.8,469-449.7,603.5c-26.9,26.9-50,53.8-50,63.4c0,15.4,282.5,484.3,474.7,789.9l44.2,71.1l2877.2-3.8l2877.2-5.8L8132.8,3811.1z"
       id="path4" /><path
       d="M2395.8,3545.9c-32.7-51.9-59.6-99.9-59.6-109.6c0-7.7,42.3-71.1,94.2-142.2c271-365.2,390.1-709.2,388.2-1135.9c0-392.1-55.7-582.3-415.2-1383.8C2094,82.5,1982.6-198.1,1911.4-471c-98-384.4-69.2-707.3,96.1-1051.3c253.7-528.5,555.4-690,1935.4-1045.5c515.1-132.6,713-194.1,999.4-311.4c55.7-21.1,73-19.2,178.7,28.8c194.1,86.5,313.3,123,932.1,282.5c1172.4,301.7,1537.6,461.3,1772,774.6c196.1,259.5,294.1,530.4,309.5,849.5c19.2,386.3-92.2,730.3-590,1823.9c-265.2,584.3-326.7,768.8-365.2,1101.3c-21.1,192.2-1.9,440.1,50,647.7c40.4,163.4,196,472.8,322.9,647.7c59.6,80.7,107.6,153.8,107.6,161.4c0,7.7-26.9,55.7-59.6,107.6l-59.6,92.3H4998.1H2455.3L2395.8,3545.9z"
       id="path6" /></g></g>
<text
   xml:space="preserve"
   style="font-style:normal;font-weight:normal;font-size:97.1452px;line-height:1.25;font-family:sans-serif;fill:#00ffff;fill-opacity:1;stroke:none;stroke-width:1.51789;filter:url(#filter951)"
   x="366.21341"
   y="468.3067"
   id="text845"
   transform="matrix(0.7836388,0,0,1.2760981,9.2936803,31.598513)"><tspan
     sodipodi:role="line"
     id="tspan843"
     x="366.21341"
     y="468.3067"
     style="font-style:normal;font-variant:normal;font-weight:bold;font-stretch:normal;font-size:97.1452px;font-family:sans-serif;-inkscape-font-specification:'sans-serif Bold';stroke-width:1.51789">Denuncia</tspan></text><text
   xml:space="preserve"
   id="text847"
   style="fill:black;fill-opacity:1;line-height:1.25;stroke:none;font-family:sans-serif;font-style:normal;font-weight:normal;font-size:40px;white-space:pre;shape-inside:url(#rect849);" /></svg>
