<?xml version="1.0" standalone="no"?>
<!DOCTYPE svg PUBLIC "-//W3C//DTD SVG 20010904//EN"
 "http://www.w3.org/TR/2001/REC-SVG-20010904/DTD/svg10.dtd">
<svg version="1.0" xmlns="http://www.w3.org/2000/svg"
 width="1280.000000pt" height="1280.000000pt" viewBox="0 0 1280.000000 1280.000000"
 preserveAspectRatio="xMidYMid meet">
<metadata>
Created by potrace 1.15, written by Peter Selinger 2001-2017
</metadata>
<g transform="translate(0.000000,1280.000000) scale(0.100000,-0.100000)"
fill="#000000" stroke="none">
<path d="M6105 12794 c-532 -32 -987 -106 -1440 -235 -2060 -585 -3695 -2163
-4358 -4204 -148 -455 -237 -907 -289 -1455 -16 -178 -16 -822 0 -1000 83
-888 294 -1637 667 -2373 967 -1908 2823 -3219 4920 -3476 313 -39 428 -45
795 -45 367 0 482 6 795 45 1836 225 3509 1266 4540 2824 550 832 895 1761
1014 2730 39 313 45 428 45 795 0 367 -6 482 -45 795 -237 1933 -1376 3679
-3064 4692 -840 505 -1726 793 -2729 889 -151 14 -716 26 -851 18z m800 -879
c905 -87 1723 -370 2484 -858 1339 -857 2264 -2289 2490 -3852 44 -300 54
-457 54 -805 0 -417 -27 -708 -99 -1070 -347 -1743 -1515 -3220 -3134 -3966
-563 -259 -1141 -413 -1800 -480 -229 -24 -771 -24 -1000 0 -839 85 -1548 311
-2260 719 -1289 738 -2248 2006 -2610 3447 -119 473 -163 839 -163 1350 0 348
10 505 54 805 186 1291 852 2504 1849 3371 945 821 2120 1294 3370 1358 150 7
609 -4 765 -19z"/>
<path d="M6355 10738 c-138 -17 -274 -121 -338 -255 l-32 -68 -5 -2030 c-4
-1605 -8 -2035 -18 -2052 -41 -72 -143 -70 -181 4 -8 16 -11 483 -11 1697 0
1193 -3 1690 -11 1728 -27 128 -126 256 -240 312 -219 106 -481 11 -588 -213
l-36 -76 -6 -2345 c-4 -1684 -8 -2358 -16 -2391 -29 -116 -76 -198 -140 -243
-110 -77 -263 -23 -378 134 -20 27 -235 426 -479 889 -244 462 -461 865 -481
895 -82 124 -237 227 -391 262 -108 24 -277 15 -399 -20 -80 -23 -329 -138
-341 -157 -2 -4 83 -207 190 -451 310 -708 638 -1457 885 -2020 126 -288 264
-602 306 -698 124 -284 213 -427 355 -570 193 -194 443 -315 725 -349 123 -15
2963 -15 3090 0 510 60 919 434 1037 948 l22 96 3 2644 c2 1785 0 2662 -7
2700 -22 119 -99 224 -201 277 -76 39 -190 45 -271 14 -80 -30 -159 -104 -200
-188 l-33 -67 -5 -1395 c-4 -1095 -8 -1400 -18 -1417 -19 -34 -53 -53 -95 -53
-31 0 -45 7 -68 31 l-29 31 0 1852 c0 2002 2 1924 -53 2033 -79 155 -263 257
-431 238 -174 -19 -326 -142 -376 -302 -20 -64 -20 -90 -20 -1924 0 -2006 3
-1905 -51 -1943 -26 -18 -81 -21 -110 -6 -52 28 -49 -88 -49 2047 0 1222 -4
2001 -10 2037 -38 235 -255 394 -495 364z"/>
</g>
</svg>
