<?xml version="1.0" encoding="UTF-8" standalone="no"?>
<svg
   xmlns:dc="http://purl.org/dc/elements/1.1/"
   xmlns:cc="http://creativecommons.org/ns#"
   xmlns:rdf="http://www.w3.org/1999/02/22-rdf-syntax-ns#"
   xmlns:svg="http://www.w3.org/2000/svg"
   xmlns="http://www.w3.org/2000/svg"
   xmlns:sodipodi="http://sodipodi.sourceforge.net/DTD/sodipodi-0.dtd"
   xmlns:inkscape="http://www.inkscape.org/namespaces/inkscape"
   version="1.1"
   x="0px"
   y="0px"
   viewBox="0 0 1000 1000"
   enable-background="new 0 0 1000 1000"
   xml:space="preserve"
   id="svg20"
   sodipodi:docname="configuraciones.svg"
   inkscape:version="1.0.1 (3bc2e813f5, 2020-09-07)"><style
   id="style849"></style><defs
   id="defs24" /><sodipodi:namedview
   pagecolor="#ffffff"
   bordercolor="#666666"
   borderopacity="1"
   objecttolerance="10"
   gridtolerance="10"
   guidetolerance="10"
   inkscape:pageopacity="0"
   inkscape:pageshadow="2"
   inkscape:window-width="1366"
   inkscape:window-height="705"
   id="namedview22"
   showgrid="false"
   showguides="true"
   inkscape:zoom="0.538"
   inkscape:cx="500"
   inkscape:cy="500"
   inkscape:window-x="-8"
   inkscape:window-y="-8"
   inkscape:window-maximized="1"
   inkscape:current-layer="svg20" />
<metadata
   id="metadata2"> Svg Vector Icons : http://www.onlinewebfonts.com/icon <rdf:RDF><cc:Work
     rdf:about=""><dc:format>image/svg+xml</dc:format><dc:type
       rdf:resource="http://purl.org/dc/dcmitype/StillImage" /></cc:Work></rdf:RDF></metadata>
<g
   id="g18"><path
     d="M500,990C229.8,990,10,770.2,10,500C10,229.8,229.8,10,500,10c270.2,0,490,219.8,490,490C990,770.2,770.2,990,500,990L500,990z M500,56.5C255.4,56.5,56.5,255.5,56.5,500c0,244.5,198.9,443.4,443.5,443.4c244.6,0,443.5-198.9,443.5-443.4C943.5,255.5,744.5,56.5,500,56.5L500,56.5z"
     id="path4"
     style="fill:#ffffff" /><path
     d="M487.4,662.3v-77.9h245.2v77.9L487.4,662.3L487.4,662.3z"
     id="path6"
     style="fill:#ffffff" /><path
     d="M487.4,781.1v-77.9h245.2v77.9H487.4L487.4,781.1z"
     id="path8"
     style="fill:#ffffff" /><path
     d="M421,476.6H225.5V281H421V476.6z"
     id="path10"
     style="fill:#ffffff" /><path
     d="M421,780.6H225.5V585H421V780.6z"
     id="path12"
     style="fill:#ffffff" /><path
     d="M735,264.7L735,264.7c-3.4-3.1-8.7-3.8-13-1.3c-1.3,0.8-2.4,1.8-3.3,3l-7.3,8.3c-12.8-11.2-27.9-20-44.4-25.7l3.6-10.4c0.6-1.4,0.9-2.9,0.9-4.4c0-4.9-3.2-9.1-7.6-10.5h0.1c-12.6-3.1-25.8-4.8-39.4-4.8c-13.5,0-26.7,1.7-39.3,4.8c-4.4,1.5-7.6,5.7-7.6,10.5c0,1.6,0.4,3.1,1,4.4l3.6,10.4c-16.6,5.6-31.6,14.4-44.4,25.7l-7.3-8.3c-0.9-1.2-2-2.2-3.4-3c-4.3-2.5-9.5-1.8-12.9,1.3h0c-9,9.3-17.1,19.9-23.9,31.6c-6.8,11.8-11.9,24-15.5,36.5v-0.1c-0.9,4.6,1,9.5,5.3,11.9c1.3,0.8,2.8,1.2,4.3,1.4l10.7,2.1c-1.7,8.3-2.6,16.8-2.6,25.6c0,8.8,0.9,17.3,2.6,25.7l-10.7,2.1c-1.5,0.2-2.9,0.6-4.3,1.4c-4.3,2.4-6.3,7.3-5.3,11.9v0c3.6,12.5,8.7,24.7,15.5,36.5c6.8,11.8,14.8,22.4,23.9,31.7c3.4,3.1,8.7,3.8,12.9,1.3c1.3-0.7,2.5-1.8,3.4-3l7.3-8.3c12.8,11.2,27.8,20,44.4,25.6l-3.6,10.4c-0.6,1.4-1,2.9-1,4.4c0,4.9,3.2,9.1,7.7,10.5c12.5,3.2,25.8,4.8,39.3,4.8c13.5,0,26.7-1.7,39.3-4.8c4.4-1.5,7.7-5.6,7.7-10.5c0-1.6-0.3-3-0.9-4.4l-3.6-10.4c16.5-5.6,31.6-14.4,44.4-25.6l7.3,8.3c0.9,1.2,2,2.3,3.4,3c4.3,2.5,9.5,1.8,12.9-1.3l0,0c9-9.3,17.1-19.9,23.9-31.7c6.8-11.7,11.8-24,15.4-36.5c0.9-4.6-1-9.4-5.3-11.8c-1.4-0.8-2.8-1.2-4.3-1.4l-10.7-2.1c1.6-8.3,2.5-16.9,2.5-25.7c0-8.8-0.9-17.3-2.5-25.6l10.7-2.1c1.5-0.2,3-0.6,4.3-1.4c4.2-2.5,6.2-7.3,5.3-11.8c-3.5-12.5-8.6-24.8-15.4-36.5C752.1,284.6,744,274.1,735,264.7z M624.6,447c-40.2,0-73-32.8-73-73c0-40.3,32.8-73,73-73c40.2,0,73.1,32.8,73.1,73C697.6,414.2,664.8,447,624.6,447z"
     id="path14"
     style="fill:#ffffff" /><path
     d="M624.6,332.6c-22.7,0-41.3,18.6-41.3,41.3c0,22.7,18.5,41.3,41.3,41.3c22.7,0,41.3-18.5,41.3-41.3C665.9,351.2,647.3,332.6,624.6,332.6z"
     id="path16"
     style="fill:#ffffff" /></g>
</svg>
