<?xml version="1.0" encoding="UTF-8" standalone="no"?>
<svg
   xmlns:dc="http://purl.org/dc/elements/1.1/"
   xmlns:cc="http://creativecommons.org/ns#"
   xmlns:rdf="http://www.w3.org/1999/02/22-rdf-syntax-ns#"
   xmlns:svg="http://www.w3.org/2000/svg"
   xmlns="http://www.w3.org/2000/svg"
   xmlns:sodipodi="http://sodipodi.sourceforge.net/DTD/sodipodi-0.dtd"
   xmlns:inkscape="http://www.inkscape.org/namespaces/inkscape"
   viewBox="0 0 64 64"
   version="1.1"
   id="svg31"
   sodipodi:docname="CoronaVirus.svg"
   inkscape:version="1.0.1 (3bc2e813f5, 2020-09-07)">
  <style
     id="style860"></style>
  <metadata
     id="metadata35">
    <rdf:RDF>
      <cc:Work
         rdf:about="">
        <dc:format>image/svg+xml</dc:format>
        <dc:type
           rdf:resource="http://purl.org/dc/dcmitype/StillImage" />
      </cc:Work>
    </rdf:RDF>
  </metadata>
  <sodipodi:namedview
     pagecolor="#ffffff"
     bordercolor="#666666"
     borderopacity="1"
     objecttolerance="10"
     gridtolerance="10"
     guidetolerance="10"
     inkscape:pageopacity="0"
     inkscape:pageshadow="2"
     inkscape:window-width="1366"
     inkscape:window-height="705"
     id="namedview33"
     showgrid="false"
     inkscape:zoom="8.40625"
     inkscape:cx="32"
     inkscape:cy="32"
     inkscape:window-x="-8"
     inkscape:window-y="-8"
     inkscape:window-maximized="1"
     inkscape:current-layer="svg31" />
  <defs
     id="defs4">
    <style
       id="style2">.cls-1{fill:#231f20;}</style>
  </defs>
  <title
     id="title6">Corona Virus</title>
  <g
     id="Corona_Virus"
     data-name="Corona Virus"
     style="fill:#ffffff">
    <path
       class="cls-1"
       d="M23,35a1,1,0,0,0,0,2A1,1,0,0,0,23,35Z"
       id="path8"
       style="fill:#ffffff" />
    <path
       class="cls-1"
       d="M40.5,26a1.5,1.5,0,1,0,.89,2.7A1.5,1.5,0,0,0,40.5,26Z"
       id="path10"
       style="fill:#ffffff" />
    <path
       class="cls-1"
       d="M36,38a2,2,0,1,0,2,2A2,2,0,0,0,36,38Z"
       id="path12"
       style="fill:#ffffff" />
    <path
       class="cls-1"
       d="M28.5,23a2.5,2.5,0,0,0-1.9,4.12h0A2.5,2.5,0,1,0,28.5,23Z"
       id="path14"
       style="fill:#ffffff" />
    <path
       class="cls-1"
       d="M31,6.82A27.32,27.32,0,0,0,31,10a16.68,16.68,0,0,1,2,0,26.76,26.76,0,0,0,0-3.21,3,3,0,1,0-2,0Z"
       id="path16"
       style="fill:#ffffff" />
    <path
       class="cls-1"
       d="M33,57.18A28.71,28.71,0,0,0,33,54a16.68,16.68,0,0,1-2,0,28.71,28.71,0,0,0,0,3.21,3,3,0,1,0,2,0Z"
       id="path18"
       style="fill:#ffffff" />
    <path
       class="cls-1"
       d="M9.65,43.8a2,2,0,1,0,1,1.66c.26-.08-.19.16,2.87-1.61a14.92,14.92,0,0,1-1-1.73C9.54,43.81,9.81,43.63,9.65,43.8Z"
       id="path20"
       style="fill:#ffffff" />
    <path
       class="cls-1"
       d="M54.35,20.2a2,2,0,1,0-1-1.66c-.22.06.09-.1-2.87,1.6a15.05,15.05,0,0,1,1,1.74C54.46,20.19,54.19,20.37,54.35,20.2Z"
       id="path22"
       style="fill:#ffffff" />
    <path
       class="cls-1"
       d="M54.35,43.8c-.16-.17-.08-.1-2.83-1.68a14.92,14.92,0,0,1-1,1.73c3,1.76,2.61,1.53,2.87,1.61a2,2,0,1,0,1-1.66Z"
       id="path24"
       style="fill:#ffffff" />
    <path
       class="cls-1"
       d="M9.65,20.2c.16.17.08.1,2.83,1.68a15.05,15.05,0,0,1,1-1.74c-2.94-1.69-2.65-1.54-2.87-1.6a2,2,0,1,0-1,1.66Z"
       id="path26"
       style="fill:#ffffff" />
    <path
       class="cls-1"
       d="M57.19,31c-.1.1.69,0-8.19,0a1,1,0,0,1,0-2h2.77a20,20,0,0,0-8.92-13.79c2.74-4.75,2.56-4.4,2.61-4.59a2,2,0,0,0,1.77-1,2,2,0,1,0-3.49,0c.09.13,0,0-.11.28-2.46,4.26-2.45,4.43-2.55,4.33l-1.21,2.1a1,1,0,0,1-1.74-1l1.11-1.93a20.14,20.14,0,0,0-14.48,0l1.11,1.93a1,1,0,0,1-1.74,1l-1.21-2.1c-.1.1-.09-.06-2.55-4.33-.16-.25-.2-.15-.11-.28a2,2,0,1,0-1.72,1c.05.2-.12-.13,2.61,4.59A20,20,0,0,0,12.23,29H15a1,1,0,0,1,0,2c-8.88,0-8.09.08-8.19,0a3,3,0,1,0,0,2c.14,0-.35,0,5.2,0a20,20,0,0,0,7.45,14.59l1.65-2.87a1,1,0,0,1,1.74,1c-.89,1.55-4.28,7.45-4.33,7.66a2.08,2.08,0,0,0-1.77,1,2,2,0,1,0,3.43,0c.19-.19-.12.29,2.68-4.55a20,20,0,0,0,18.24,0c2.68,4.64,2.49,4.36,2.68,4.55a2,2,0,1,0,1.66-1c-.05-.21-3.44-6.13-4.33-7.67a1,1,0,0,1,1.74-1c1.69,2.94,1.41,2.44,1.65,2.87A20,20,0,0,0,52,33c5.47,0,5.06,0,5.2,0a3,3,0,1,0,0-2ZM24.6,38.54A3,3,0,1,1,23,33,3,3,0,0,1,24.6,38.54Zm1.77-9.07h0A4.5,4.5,0,1,1,33,25.92,4.51,4.51,0,0,1,26.36,29.46ZM36,44a4,4,0,1,1,4-4A4,4,0,0,1,36,44Zm5.32-13.1A3.5,3.5,0,1,1,40.5,24,3.5,3.5,0,0,1,41.32,30.9Z"
       id="path28"
       style="fill:#ffffff" />
  </g>
</svg>
