<?xml version="1.0" encoding="UTF-8" standalone="no"?>
<svg
   xmlns:dc="http://purl.org/dc/elements/1.1/"
   xmlns:cc="http://creativecommons.org/ns#"
   xmlns:rdf="http://www.w3.org/1999/02/22-rdf-syntax-ns#"
   xmlns:svg="http://www.w3.org/2000/svg"
   xmlns="http://www.w3.org/2000/svg"
   xmlns:sodipodi="http://sodipodi.sourceforge.net/DTD/sodipodi-0.dtd"
   xmlns:inkscape="http://www.inkscape.org/namespaces/inkscape"
   version="1.1"
   x="0px"
   y="0px"
   viewBox="0 0 1000 1000"
   enable-background="new 0 0 1000 1000"
   xml:space="preserve"
   id="svg68"
   sodipodi:docname="eMPLEADO.svg"
   inkscape:version="1.0.1 (3bc2e813f5, 2020-09-07)"><style
   id="style74"></style><defs
   id="defs72"><filter
     style="color-interpolation-filters:sRGB;"
     inkscape:menu-tooltip="Fades hue progressively to white"
     inkscape:menu="Color"
     inkscape:label="Hue to White"
     id="filter104"><feColorMatrix
       values="1 0 0 0 0 1 0 0 0 0 1 0 0 0 0 0 0 0 0 1 "
       type="matrix"
       result="r"
       in="SourceGraphic"
       id="feColorMatrix76" /><feColorMatrix
       values="0 1 0 0 0 0 1 0 0 0 0 1 0 0 0 0 0 0 0 1 "
       type="matrix"
       result="g"
       in="SourceGraphic"
       id="feColorMatrix78" /><feColorMatrix
       values="0 0 1 0 0 0 0 1 0 0 0 0 1 0 0 0 0 0 0 1 "
       type="matrix"
       result="b"
       in="SourceGraphic"
       id="feColorMatrix80" /><feBlend
       result="minrg"
       in="r"
       mode="darken"
       in2="g"
       id="feBlend82" /><feBlend
       result="p"
       in="minrg"
       mode="darken"
       in2="b"
       id="feBlend84" /><feBlend
       result="maxrg"
       in="r"
       mode="lighten"
       in2="g"
       id="feBlend86" /><feBlend
       result="q"
       in="maxrg"
       mode="lighten"
       in2="b"
       id="feBlend88" /><feComponentTransfer
       result="q2"
       in="q"
       id="feComponentTransfer92"><feFuncR
         slope="0"
         type="linear"
         id="feFuncR90" /></feComponentTransfer><feBlend
       result="pq"
       in="p"
       mode="lighten"
       in2="q2"
       id="feBlend94" /><feColorMatrix
       values="-1 1 0 0 0 -1 1 0 0 0 -1 1 0 0 0 0 0 0 0 1 "
       type="matrix"
       result="qminp"
       in="pq"
       id="feColorMatrix96" /><feComposite
       k3="1"
       operator="arithmetic"
       result="qminpc"
       in="qminp"
       in2="qminp"
       id="feComposite98" /><feBlend
       result="result2"
       in2="SourceGraphic"
       mode="screen"
       id="feBlend100" /><feComposite
       operator="in"
       in="result2"
       in2="SourceGraphic"
       result="result1"
       id="feComposite102" /></filter></defs><sodipodi:namedview
   pagecolor="#ffffff"
   bordercolor="#666666"
   borderopacity="1"
   objecttolerance="10"
   gridtolerance="10"
   guidetolerance="10"
   inkscape:pageopacity="0"
   inkscape:pageshadow="2"
   inkscape:window-width="1366"
   inkscape:window-height="705"
   id="namedview70"
   showgrid="false"
   inkscape:zoom="0.538"
   inkscape:cx="196.09665"
   inkscape:cy="500"
   inkscape:window-x="-8"
   inkscape:window-y="-8"
   inkscape:window-maximized="1"
   inkscape:current-layer="svg68" />
<metadata
   id="metadata42"> Svg Vector Icons : http://www.onlinewebfonts.com/icon <rdf:RDF><cc:Work
     rdf:about=""><dc:format>image/svg+xml</dc:format><dc:type
       rdf:resource="http://purl.org/dc/dcmitype/StillImage" /><dc:title></dc:title></cc:Work></rdf:RDF></metadata>
<g
   id="g66"
   style="filter:url(#filter104)"><g
     transform="translate(0.000000,443.000000) scale(0.100000,-0.100000)"
     id="g64"><path
       d="M4112.4,3645.3c-97.7-38.3-153.3-86.2-203.1-170.6l-46-82.4l-5.7-674.6l-5.8-676.5H2324.4c-1638.5,0-1636.6,0-1828.3-97.7c-176.3-90.1-331.5-300.9-377.5-515.5c-17.2-78.6-21.1-804.9-17.2-2886.1l5.8-2778.8l70.9-145.7c86.2-174.4,197.4-281.7,375.6-366L682-4810h4321.5h4321.5l128.4,61.3c178.2,84.3,289.4,191.7,375.6,366L9900-4237v2845.9v2847.8l-61.3,128.4c-69,145.6-207,297.1-327.7,358.4c-191.7,97.7-189.7,97.7-1828.3,97.7H6155.3l-5.8,676.5c-5.7,670.7-5.7,674.6-51.7,755.1c-51.7,88.1-115,141.8-210.8,174.4C5795,3679.7,4192.9,3675.9,4112.4,3645.3z M5287.2,3116.3c126.5-65.2,245.3-185.9,304.7-306.6c46-93.9,53.7-130.3,53.7-279.8c0-207-38.3-304.7-170.6-446.5c-256.8-274-686.1-274-942.9,0c-132.2,141.8-170.6,239.6-170.6,446.5c0,149.5,7.7,185.9,53.7,281.7c65.2,134.1,208.9,268.3,345,322C4898.1,3187.2,5166.5,3179.6,5287.2,3116.3z M3853.7,1405c0-172.5,9.6-346.9,21.1-389c28.7-107.3,103.5-199.3,197.4-241.5c72.8-32.6,139.9-36.4,931.4-36.4c791.5,0,858.6,3.8,931.4,36.4c93.9,42.2,168.7,134.2,197.4,241.5c11.5,42.2,21.1,216.6,21.1,389v310.5l1558-3.8l1560-5.8l93.9-57.5c57.5-36.4,115-93.9,151.4-151.4l57.5-93.9l5.7-2761.6c3.8-2508.6,1.9-2769.2-26.8-2844c-44.1-116.9-115-193.6-228.1-245.3l-95.8-46H5003.5c-4212.3,0-4225.7,1.9-4311.9,40.2C576.6-4401.8,523-4350,469.3-4235l-46,95.8v2750.1v2750.1l46,97.7c49.8,107.3,141.8,187.8,254.9,230c59.4,19.2,373.7,24.9,1602.1,26.8h1527.4V1405z"
       id="path44"
       style="fill:#ffffff" /><path
       d="M1640.2,667.1c-49.8-51.7-51.7-59.4-40.2-197.4c5.8-78.6,17.2-187.8,23-243.4c11.5-84.3,3.8-120.7-49.8-249.1C1508-174.2,1439-409.9,1439-473.1c0-19.2-30.7-67.1-67.1-109.2c-92-101.6-124.6-205.1-124.6-400.5c0-228.1,24.9-298.9,155.2-431.2c61.3-59.4,116.9-128.4,124.6-153.3c57.5-191.6,272.1-477.2,440.8-582.6c143.7-90.1,128.4-109.2-235.7-283.6c-525.1-251-638.2-392.9-653.5-814.5c-7.7-207-3.8-224.2,38.3-287.5c88.1-132.2,329.6-216.6,774.2-272.1c258.7-32.6,1372.2-32.6,1646.2,0c398.6,46,647.7,126.5,757,243.4c42.2,46,47.9,70.9,53.7,228.1c9.6,220.4-28.8,385.2-120.7,525.1c-88.2,132.2-170.6,189.7-540.4,373.7c-254.9,128.4-312.4,164.8-312.4,197.4c0,23,19.2,47.9,46,61.3c78.6,34.5,287.5,245.3,352.6,354.5c36.4,59.4,84.3,153.3,107.3,208.9c26.8,63.2,82.4,141.8,149.5,207c134.2,132.2,157.1,205.1,145.6,469.5c-7.7,207-30.7,270.2-126.5,366c-34.5,36.4-61.3,92-78.6,166.7c-65.2,291.3-253,530.8-523.2,663.1c-218.5,107.3-383.3,139.9-755.1,145.6c-423.5,9.6-528.9,42.2-726.3,220.4c-92,84.3-116.9,95.8-189.7,95.8C1711.2,718.9,1682.4,707.4,1640.2,667.1z"
       id="path46"
       style="fill:#ffffff" /><path
       d="M5059.1-141.6c-59.4-59.4-69-113.1-32.6-180.1c47.9-90.1,34.5-88.2,960.1-90.1h877.7l46,47.9c47.9,46,61.3,124.6,36.4,191.6c-32.6,82.4-74.8,86.2-975.5,86.2h-856.6L5059.1-141.6z"
       id="path48"
       style="fill:#ffffff" /><path
       d="M5059.1-1118.9c-30.7-30.7-55.6-74.7-55.6-97.7c0-55.6,49.8-145.6,86.2-161c17.2-5.8,866.2-11.5,1887.7-11.5h1855.1l51.7,61.3c59.4,69,55.6,151.4-11.5,216.6c-36.4,38.3-65.2,38.3-1897.3,44.1l-1858.9,3.8L5059.1-1118.9z"
       id="path50"
       style="fill:#ffffff" /><path
       d="M5107-2059.9c-105.4-42.2-134.1-182.1-55.6-258.7l46-47.9h1866.6c1847.4,0,1864.7,0,1906.8,38.3c84.3,78.6,67.1,210.8-34.5,262.5c-38.3,19.2-436.9,24.9-1868.5,23C5967.5-2042.7,5128.1-2050.3,5107-2059.9z"
       id="path52"
       style="fill:#ffffff" /><path
       d="M5087.9-2887.8c-46-21.1-84.3-92-84.3-151.4c0-21.1,24.9-65.2,55.6-95.8c51.7-51.7,67.1-55.6,193.6-55.6c118.8,0,141.8,5.8,182.1,47.9c72.8,70.9,70.9,168.6-1.9,235.7c-40.2,34.5-69,42.2-176.3,40.3C5185.6-2866.7,5109-2876.3,5087.9-2887.8z"
       id="path54"
       style="fill:#ffffff" /><path
       d="M5875.5-2912.7c-47.9-46-61.3-124.6-36.4-191.6c24.9-61.3,113.1-86.2,322-86.2c182.1,0,205,3.8,249.1,44.1c28.8,23,55.6,69,61.3,103.5c9.6,51.7,1.9,70.9-46,120.7c-57.5,57.5-59.4,57.5-281.7,57.5C5933-2864.8,5919.6-2866.7,5875.5-2912.7z"
       id="path56"
       style="fill:#ffffff" /><path
       d="M6854.8-2912.7c-92-84.3-49.8-239.6,76.7-270.2c24.9-7.7,99.7-7.7,164.8-3.8c92,7.7,124.6,17.3,151.4,51.7c51.7,63.2,46,164.8-11.5,222.3c-40.2,42.2-63.2,47.9-187.8,47.9S6900.8-2870.6,6854.8-2912.7z"
       id="path58"
       style="fill:#ffffff" /><path
       d="M7677-2912.7c-59.4-57.5-63.2-159.1-11.5-222.3c34.5-42.2,51.7-46,266.4-51.7c218.5-5.7,230-5.7,283.6,40.2c74.8,65.2,74.8,172.5,0,235.7c-47.9,42.1-69,46-272.1,46C7734.5-2864.8,7721-2866.7,7677-2912.7z"
       id="path60"
       style="fill:#ffffff" /><path
       d="M8654.3-2912.7c-113.1-111.2-9.6-302.8,143.7-268.3c97.7,21.1,153.3,126.5,115,218.5C8870.9-2861,8731-2834.1,8654.3-2912.7z"
       id="path62"
       style="fill:#ffffff" /></g></g>
</svg>
