<?xml version="1.0" encoding="utf-8"?><svg version="1.1" id="Layer_1" xmlns="http://www.w3.org/2000/svg" xmlns:xlink="http://www.w3.org/1999/xlink" x="0px" y="0px" viewBox="0 0 122.88 114.18" style="enable-background:new 0 0 122.88 114.18" xml:space="preserve"><g><path d="M94.78,0.04c-1.89-0.2-3.57,0.29-5.06,1.48c-1.48,1.19-2.3,2.73-2.5,4.63l-1.57,14.89c-0.2,1.9,0.29,3.59,1.48,5.06 c1.19,1.47,2.73,2.3,4.63,2.5l5.62,0.59c-0.55,1.47-1.19,2.85-1.93,4.13c-0.73,1.3-1.88,2.49-3.4,3.58 c2.74-0.41,5.22-1.2,7.47-2.35c2.23-1.14,4.22-2.65,5.92-4.5l6.24,0.66c1.89,0.2,3.57-0.31,5.06-1.48c1.48-1.19,2.3-2.73,2.5-4.63 l1.57-14.89c0.2-1.89-0.29-3.57-1.48-5.06c-1.19-1.48-2.73-2.3-4.63-2.5L94.78,0.04L94.78,0.04L94.78,0.04z M40.19,56.95 c13.2-3.19,27.52-3.67,43.55,0c1.31,0.3,2.67,0.99,3.35,2.04c0.28,0.3,0.54,0.63,0.75,0.99l9.88,13.81l6.05-16.57 c0.58-1.65,1.33-2.73,2.36-3.23l0-0.02l6.75-5.05c0.72-0.54,1.75-0.39,2.29,0.33v0c0.54,0.72,0.39,1.75-0.33,2.29l-3.94,2.95 c0.35,0.14,0.71,0.29,1.07,0.46l4.31-2.82c0.58-0.38,1.37-0.22,1.75,0.37l0,0c0.38,0.58,0.22,1.37-0.36,1.75l-2.21,1.44h5.63 c0.99,0,1.8,0.81,1.8,1.8l0,0c0,0.99-0.81,1.8-1.8,1.8h-4.88c-0.1,0.64-0.6,1.47-0.8,2.04l-10.49,30.23l-0.01,0 c-0.47,1.32-1.39,2.5-2.69,3.26c-2.93,1.72-6.7,0.74-8.42-2.2L84.36,78.1l-4.65,25.56c-1.03,5.67-4.43,10.51-9.84,10.51H54.06 c-5.41,0-8.81-4.84-9.85-10.51l-4.88-26.81L29.09,92.62c-1.72,2.93-5.49,3.92-8.42,2.2c-1.31-0.77-2.22-1.94-2.69-3.26l-0.01,0 L7.48,61.33c-0.2-0.57-0.69-1.4-0.8-2.04H1.8c-0.99,0-1.8-0.81-1.8-1.8l0,0c0-0.99,0.81-1.8,1.8-1.8h5.63l-2.21-1.44 c-0.58-0.38-0.74-1.17-0.36-1.75l0,0c0.38-0.58,1.17-0.74,1.75-0.37l4.31,2.82c0.36-0.16,0.71-0.32,1.07-0.46l-3.94-2.95 C7.33,51,7.18,49.97,7.72,49.26v0c0.54-0.72,1.57-0.87,2.29-0.33l6.75,5.05l0,0.02c1.03,0.5,1.78,1.58,2.36,3.23l6.05,16.57 l9.88-13.81c1.03-1.75,3-2.81,5.05-3.01L40.19,56.95L40.19,56.95z M61.09,10.08c11.17,0,20.22,9.05,20.22,20.22 c0,11.17-9.05,20.22-20.22,20.22c-11.17,0-20.22-9.05-20.22-20.22C40.87,19.14,49.92,10.08,61.09,10.08L61.09,10.08z M100.8,19.72 l3.25,0.52l-0.46,2.87l-3.25-0.52L100.8,19.72L100.8,19.72z M104.3,18.67l-3.24-0.52c0.31-3.99-0.01-6.28,0.63-10.22 c0.23-1.45,1.6-2.44,3.05-2.2c1.45,0.24,2.44,1.6,2.21,3.05C106.3,12.71,105.26,14.79,104.3,18.67L104.3,18.67z"/></g></svg>