<?xml version="1.0" encoding="UTF-8" standalone="no"?>
<svg
   xmlns:dc="http://purl.org/dc/elements/1.1/"
   xmlns:cc="http://creativecommons.org/ns#"
   xmlns:rdf="http://www.w3.org/1999/02/22-rdf-syntax-ns#"
   xmlns:svg="http://www.w3.org/2000/svg"
   xmlns="http://www.w3.org/2000/svg"
   xmlns:sodipodi="http://sodipodi.sourceforge.net/DTD/sodipodi-0.dtd"
   xmlns:inkscape="http://www.inkscape.org/namespaces/inkscape"
   version="1.1"
   x="0px"
   y="0px"
   viewBox="0 0 1000 1000"
   enable-background="new 0 0 1000 1000"
   xml:space="preserve"
   id="svg10"
   sodipodi:docname="servicio.svg"
   inkscape:version="1.0.1 (3bc2e813f5, 2020-09-07)"><style
   id="style839"></style><defs
   id="defs14" /><sodipodi:namedview
   pagecolor="#ffffff"
   bordercolor="#666666"
   borderopacity="1"
   objecttolerance="10"
   gridtolerance="10"
   guidetolerance="10"
   inkscape:pageopacity="0"
   inkscape:pageshadow="2"
   inkscape:window-width="1366"
   inkscape:window-height="705"
   id="namedview12"
   showgrid="false"
   inkscape:zoom="0.538"
   inkscape:cx="500"
   inkscape:cy="500"
   inkscape:window-x="-8"
   inkscape:window-y="-8"
   inkscape:window-maximized="1"
   inkscape:current-layer="svg10" />
<metadata
   id="metadata2"> Svg Vector Icons : http://www.onlinewebfonts.com/icon <rdf:RDF><cc:Work
     rdf:about=""><dc:format>image/svg+xml</dc:format><dc:type
       rdf:resource="http://purl.org/dc/dcmitype/StillImage" /><dc:title></dc:title></cc:Work></rdf:RDF></metadata>
<g
   id="g8"><path
     d="M550.1,552.3H449.9c-6.1,0-11.1,5-11.1,11.1v100.2c0,6.1,5,11.1,11.1,11.1h100.2c6.1,0,11.1-5,11.1-11.1v-49.5c0,0,0-0.1,0-0.1v-50.6C561.3,557.3,556.3,552.3,550.1,552.3z"
     id="path4"
     style="fill:#ffffff" /><path
     d="M923.2,210.5H689.3v-89.1C689.3,60,639.4,10,578,10H422c-61.4,0-111.4,50-111.4,111.4v89.1H76.8c-36.8,0-66.8,30-66.8,66.8V456c0,23.8,13.1,46.2,39,66.7v400.4C49,960,79,990,115.8,990h768.4c36.8,0,66.8-30,66.8-66.8V523.1c25.9-20.8,39-43.4,39-67.4V277.3C990,240.4,960,210.5,923.2,210.5z M355.2,121.4c0-36.8,30-66.8,66.8-66.8H578c36.8,0,66.8,30,66.8,66.8v89.1H355.2V121.4z M912.3,541.7c-75.1,40.8-203.3,71.3-306.5,85.6v36.4c0,30.7-25,55.7-55.7,55.7H449.9c-30.7,0-55.7-25-55.7-55.7v-37.6c-50.5-7.1-103.3-17.4-151.3-29.6c-68.6-17.4-122.8-37.1-161.1-58.7c-8-4.5-10.9-14.7-6.3-22.8c4.5-8,14.7-10.9,22.8-6.3c68.4,38.6,192.7,68.7,296,83.7v-28.9c0-30.7,25-55.7,55.7-55.7h100.2c30.7,0,55.7,25,55.7,55.7v30.1c99.1-14,220.1-43,290.5-81.2c8.1-4.4,18.3-1.4,22.7,6.7C923.4,527.2,920.4,537.3,912.3,541.7z"
     id="path6"
     style="fill:#ffffff" /></g>
</svg>
