<?xml version="1.0" encoding="utf-8"?>
<!-- Svg Vector Icons : http://www.onlinewebfonts.com/icon -->
<!DOCTYPE svg PUBLIC "-//W3C//DTD SVG 1.1//EN" "http://www.w3.org/Graphics/SVG/1.1/DTD/svg11.dtd">
<svg version="1.1" xmlns="http://www.w3.org/2000/svg" xmlns:xlink="http://www.w3.org/1999/xlink" x="0px" y="0px" viewBox="0 0 1000 1000" enable-background="new 0 0 1000 1000" xml:space="preserve">
<metadata> Svg Vector Icons : http://www.onlinewebfonts.com/icon </metadata>
<g><g transform="translate(0.000000,511.000000) scale(0.100000,-0.100000)"><path d="M7246.5,4975c-594-130-1050.4-558.4-1195.7-1124.4c-45.9-181-53.5-532.8-12.7-729.2c45.9-219.2,206.5-525.2,379.9-713.9c132.6-145.3,153-181,137.7-237.1c-12.7-51,0-84.1,48.4-135.1c35.7-38.2,96.9-124.9,137.7-196.3c66.3-112.2,89.2-130,196.3-158.1c68.8-17.8,247.3-38.2,397.7-48.4l272.8-17.8l43.4,155.5l40.8,153l122.4,17.8c63.7,10.2,191.2,43.3,277.9,76.5c986.7,372.2,1313,1593.5,647.6,2424.6c-102,127.5-351.8,341.6-402.8,341.6c-12.7,0-112.2-323.8-221.8-719c-109.6-395.2-206.5-736.8-216.7-762.3c-12.8-38.3-51-33.1-369.7,56.1c-193.8,53.6-359.5,102-364.6,109.6c-7.6,7.7,79.1,346.8,193.8,754.7c114.7,407.9,206.5,754.6,206.5,767.4C7565.2,5020.9,7430.1,5015.8,7246.5,4975z"/><path d="M5339.5,2275.1c-114.7-40.8-48.5,5.1-655.2-492.1C3633.8,921.3,3338.1,737.7,2930.1,689.3l-158.1-17.8v-1677.6v-1680.1H3050c219.3,0,300.9-10.2,390.1-51c178.5-79.1,484.4-142.8,1269.7-265.2c400.3-63.7,910.2-150.4,1134.5-193.8c869.4-168.3,1402.2-109.6,1585.8,170.8c104.5,158.1,10.2,385-211.6,509.9l-99.4,58.6h114.7c158.1,0,433.4,63.7,553.3,124.9c364.6,186.1,407.9,611.9,89.2,900l-99.4,89.2l135.1,30.6c196.3,43.3,359.5,165.7,453.8,334c68.8,122.4,79,165.7,79,331.4c0,145.3-15.3,216.7-56.1,293.2C8319.8-226,8215.3-124,8100.6-75.6c-79,33.2-84.1,38.2-38.2,53.6C8223,34,8388.7,133.5,8470.3,225.3c249.9,275.3,277.9,642.5,71.4,884.7c-158.1,186.1-201.4,196.3-849,214.2c-861.7,25.5-1047.9,79-1193.2,339.1C6275.1,2071.1,5663.3,2394.9,5339.5,2275.1z"/><path d="M967,740.3L910.9,702v-1766.8c0-1338.5,7.6-1771.9,30.6-1794.9c43.3-43.3,1399.7-43.3,1443,0c23,22.9,30.6,456.4,30.6,1794.9V702l-56.1,38.3c-48.4,35.7-158.1,40.8-696,40.8S1015.4,776,967,740.3z M1777.7-2087.2c150.4-79.1,175.9-272.8,53.5-397.7c-211.6-209-540.5,68.8-374.8,318.7C1530.4-2051.5,1652.8-2023.4,1777.7-2087.2z"/><path d="M4740.3-3423.1c-239.7-331.4-188.7-823.5,119.8-1121.8c334-326.3,859.2-326.3,1211-2.5c221.8,204,326.3,566,244.7,854.1c-17.9,63.7-33.1,114.7-35.7,114.7c0,0-122.4,23-270.2,48.5c-147.9,28-423.2,76.5-611.9,112.2C4786.2-3305.8,4827-3305.8,4740.3-3423.1z M5563.8-3665.3c158.1-66.3,226.9-249.9,153-407.9c-53.5-112.2-150.4-168.3-295.7-168.3c-84.2,0-119.8,15.3-191.2,86.7c-74,73.9-86.7,104.5-86.7,201.4c0,132.6,68.8,234.6,188.7,288.1C5433.8-3622,5456.7-3622,5563.8-3665.3z"/></g></g>
</svg>