<?xml version="1.0" encoding="UTF-8" standalone="no"?>
<svg
   xmlns:dc="http://purl.org/dc/elements/1.1/"
   xmlns:cc="http://creativecommons.org/ns#"
   xmlns:rdf="http://www.w3.org/1999/02/22-rdf-syntax-ns#"
   xmlns:svg="http://www.w3.org/2000/svg"
   xmlns="http://www.w3.org/2000/svg"
   xmlns:sodipodi="http://sodipodi.sourceforge.net/DTD/sodipodi-0.dtd"
   xmlns:inkscape="http://www.inkscape.org/namespaces/inkscape"
   height="512pt"
   viewBox="-25 0 512 512"
   width="512pt"
   version="1.1"
   id="svg14"
   sodipodi:docname="vecinos.svg"
   inkscape:version="1.0.1 (3bc2e813f5, 2020-09-07)">
  <style></style>
  <metadata
     id="metadata20">
    <rdf:RDF>
      <cc:Work
         rdf:about="">
        <dc:format>image/svg+xml</dc:format>
        <dc:type
           rdf:resource="http://purl.org/dc/dcmitype/StillImage" />
        <dc:title></dc:title>
      </cc:Work>
    </rdf:RDF>
  </metadata>
  <defs
     id="defs18" />
  <sodipodi:namedview
     pagecolor="#ffffff"
     bordercolor="#666666"
     borderopacity="1"
     objecttolerance="10"
     gridtolerance="10"
     guidetolerance="10"
     inkscape:pageopacity="0"
     inkscape:pageshadow="2"
     inkscape:window-width="1366"
     inkscape:window-height="705"
     id="namedview16"
     showgrid="false"
     inkscape:zoom="1.1145218"
     inkscape:cx="412.31875"
     inkscape:cy="287.44388"
     inkscape:window-x="-8"
     inkscape:window-y="-8"
     inkscape:window-maximized="1"
     inkscape:current-layer="svg14" />
  <path
     d="m101.84375 312.390625v-97.808594c0-7.058593 1.011719-13.941406 2.90625-20.511719h-65.953125c-10.695313 0-20.394531 4.351563-27.417969 11.375-7.023437 7.023438-11.378906 16.726563-11.378906 27.417969v77.828125c0 9.472656 3.457031 18.195313 9.183594 24.980469 2.976562 3.53125 6.578125 6.523437 10.632812 8.8125v113.121094c0 8.269531 6.703125 14.972656 14.96875 14.972656h91.960938v-104.574219c-15.722656-14.195312-24.902344-34.417968-24.902344-55.613281zm0 0"
     id="path2"
     style="fill:#ffffff" />
  <path
     d="m80.847656 176.363281c32.339844 0 58.648438-26.308593 58.648438-58.648437s-26.308594-58.648438-58.648438-58.648438-58.648437 26.308594-58.648437 58.648438 26.308593 58.648437 58.648437 58.648437zm0 0"
     id="path4"
     style="fill:#ffffff" />
  <path
     d="m282.441406 169.667969h-105.746094c-12.375 0-23.605468 5.042969-31.738281 13.171875-8.132812 8.132812-13.171875 19.363281-13.171875 31.742187v97.808594c0 10.96875 4 21.070313 10.621094 28.917969 3.925781 4.652344 8.785156 8.5 14.28125 11.25v144.46875c0 8.269531 6.703125 14.972656 14.972656 14.972656h115.820313c8.269531 0 14.972656-6.703125 14.972656-14.972656v-144.46875c5.496094-2.75 10.355469-6.597656 14.277344-11.25 6.625-7.847656 10.625-17.945313 10.625-28.917969v-97.808594c0-12.378906-5.039063-23.609375-13.171875-31.738281-8.132813-8.132812-19.363282-13.175781-31.742188-13.175781zm0 0"
     id="path6"
     style="fill:#ffffff" />
  <path
     d="m229.546875 139.726562c38.523437 0 69.863281-31.339843 69.863281-69.863281 0-38.523437-31.339844-69.863281-69.863281-69.863281s-69.863281 31.339844-69.863281 69.863281c0 38.523438 31.339844 69.863281 69.863281 69.863281zm0 0"
     id="path8"
     style="fill:#ffffff" />
  <path
     d="m449.769531 205.445312c-7.023437-7.023437-16.722656-11.375-27.417969-11.375h-67.960937c1.890625 6.570313 2.90625 13.453126 2.90625 20.511719v97.808594c0 21.191406-9.179687 41.417969-24.902344 55.613281v104.464844c.589844.070312 1.195313.109375 1.808594.109375h92.15625c8.269531 0 14.972656-6.703125 14.972656-14.972656v-113.121094c4.050781-2.285156 7.652344-5.28125 10.632813-8.8125 5.726562-6.785156 9.183594-15.507813 9.183594-24.980469v-77.828125c0-10.691406-4.355469-20.394531-11.378907-27.417969zm0 0"
     id="path10"
     style="fill:#ffffff" />
  <path
     d="m380.261719 176.363281c32.339843 0 58.648437-26.308593 58.648437-58.648437s-26.308594-58.648438-58.648437-58.648438c-32.335938 0-58.648438 26.308594-58.648438 58.648438s26.3125 58.648437 58.648438 58.648437zm0 0"
     id="path12"
     style="fill:#ffffff" />
</svg>
