<?xml version="1.0" encoding="utf-8"?>
<!-- Svg Vector Icons : http://www.onlinewebfonts.com/icon -->
<!DOCTYPE svg PUBLIC "-//W3C//DTD SVG 1.1//EN" "http://www.w3.org/Graphics/SVG/1.1/DTD/svg11.dtd">
<svg version="1.1" xmlns="http://www.w3.org/2000/svg" xmlns:xlink="http://www.w3.org/1999/xlink" x="0px" y="0px" viewBox="0 0 1000 1000" enable-background="new 0 0 1000 1000" xml:space="preserve">
<metadata> Svg Vector Icons : http://www.onlinewebfonts.com/icon </metadata>
<g><g><g><path d="M782,516.5c50-33.6,84.3-99.9,84.3-159.6c0-84.2-68.3-152.5-152.5-152.5c-60.2,0-112.1,35-136.9,85.6c9.9,12.3,16.1,27.7,16.1,44.7v125.6c14,22.4,31.9,42.2,52.6,56.2c-18.4,4.6-35.9,11.2-52.6,19v107.7c0,39.4-32.1,71.5-71.5,71.5h-49.3l28.4,28.4v29.4C645.6,814.2,990,799.2,990,727.4C990,650.6,901.5,546.8,782,516.5z M713.9,795.5l-77.4-77.3l65.1-157.4H701l-25.3-29c12.2,4.4,25,7,38.2,7c13.2,0,25.9-2.6,38.1-7l-25.2,29h-0.7l65.2,157.4L713.9,795.5z"/><path d="M521.7,286.3H58.4c-26.6,0-48.4,21.8-48.4,48.4v308.5c0,26.6,21.8,48.4,48.4,48.4h211.8v41.3H122.1l-19.8,19.8v19.8h375.5v-19.8l-19.8-19.8H309.8v-41.3h211.9c26.6,0,48.4-21.8,48.4-48.4V334.8C570.1,308.1,548.3,286.3,521.7,286.3z"/></g></g><g></g><g></g><g></g><g></g><g></g><g></g><g></g><g></g><g></g><g></g><g></g><g></g><g></g><g></g><g></g></g>
</svg>