<?xml version="1.0" standalone="no"?>
<!DOCTYPE svg PUBLIC "-//W3C//DTD SVG 20010904//EN"
 "http://www.w3.org/TR/2001/REC-SVG-20010904/DTD/svg10.dtd">
<svg version="1.0" xmlns="http://www.w3.org/2000/svg"
 width="225.000000pt" height="225.000000pt" viewBox="0 0 225.000000 225.000000"
 preserveAspectRatio="xMidYMid meet">
<metadata>
Created by potrace 1.16, written by Peter Selinger 2001-2019
</metadata>
<g transform="translate(0.000000,225.000000) scale(0.100000,-0.100000)"
fill="#000000" stroke="none">
<path d="M865 2239 c-67 -21 -115 -88 -115 -164 l0 -50 -263 -263 -262 -262
-49 0 c-118 0 -202 -114 -166 -226 18 -56 416 -457 477 -480 115 -44 233 39
233 163 0 40 5 54 25 73 l25 24 16 -22 c34 -48 113 -66 164 -37 14 8 28 14 31
15 3 0 192 -213 419 -474 467 -536 461 -531 585 -531 58 1 79 6 124 30 148 81
183 272 74 401 -10 12 -214 191 -453 399 -239 208 -447 390 -463 404 -27 26
-27 27 -11 68 22 55 12 107 -27 146 l-30 30 22 23 c18 19 33 24 72 24 124 0
207 118 163 233 -12 32 -66 92 -224 249 -240 240 -268 257 -367 227z m307
-287 c203 -203 208 -209 208 -249 0 -34 -6 -46 -31 -67 -58 -49 -63 -46 -303
193 -213 214 -219 220 -212 252 10 51 42 79 90 79 39 0 46 -6 248 -208z m-249
-624 l-248 -248 -187 187 -188 188 247 247 248 248 187 -187 188 -188 -247
-247z m-501 -126 c241 -240 245 -247 189 -303 -22 -22 -39 -29 -67 -29 -36 0
-49 11 -246 208 -203 202 -208 208 -208 248 0 53 38 91 95 93 13 1 94 -74 237
-217z m756 164 c3 -26 -12 -45 -130 -163 -118 -119 -136 -133 -163 -131 -25 3
-31 8 -33 32 -3 26 12 45 130 163 118 119 136 133 163 131 25 -3 31 -8 33 -32z
m532 -635 c0 -8 -183 -191 -192 -191 -9 0 -468 526 -468 537 0 4 28 35 61 69
l62 62 268 -235 c148 -130 269 -238 269 -242z m110 -88 l32 -26 -108 -108
-108 -109 -28 27 c-15 15 -28 31 -28 37 0 12 190 206 202 206 3 0 21 -12 38
-27z m223 -197 c100 -89 117 -116 117 -182 0 -97 -78 -174 -176 -174 -68 0
-106 26 -208 145 l-86 100 112 112 c110 110 113 112 133 95 11 -10 60 -53 108
-96z"/>
<path d="M679 1703 c-113 -110 -130 -141 -90 -163 11 -5 23 -10 27 -10 16 0
224 215 224 231 0 20 -26 49 -42 49 -6 0 -60 -48 -119 -107z"/>
<path d="M196 520 c-83 -26 -131 -135 -93 -210 11 -23 9 -28 -34 -70 -50 -48
-69 -94 -69 -167 0 -78 -39 -73 615 -73 654 0 615 -5 615 73 0 73 -19 119 -69
167 -43 42 -45 47 -34 70 32 62 6 145 -60 194 -28 20 -40 21 -435 23 -224 1
-420 -2 -436 -7z m836 -97 c28 -32 30 -58 7 -86 l-20 -27 -403 0 c-388 0 -404
1 -421 20 -24 27 -22 70 5 92 21 17 51 18 420 18 365 0 398 -1 412 -17z m36
-217 c38 -20 61 -47 68 -84 l7 -32 -528 0 -527 0 6 32 c7 37 21 55 61 80 28
17 61 18 458 18 347 0 433 -3 455 -14z"/>
</g>
</svg>
