<?xml version="1.0" encoding="UTF-8" standalone="no"?>
<svg
   width="1em"
   height="1em"
   viewBox="0 0 16 16"
   class="bi bi-person-check"
   fill="currentColor"
   version="1.1"
   id="svg12"
   sodipodi:docname="person-check.svg"
   inkscape:version="1.2 (dc2aedaf03, 2022-05-15)"
   xmlns:inkscape="http://www.inkscape.org/namespaces/inkscape"
   xmlns:sodipodi="http://sodipodi.sourceforge.net/DTD/sodipodi-0.dtd"
   xmlns="http://www.w3.org/2000/svg"
   xmlns:svg="http://www.w3.org/2000/svg">
  <defs
     id="defs16" />
  <sodipodi:namedview
     id="namedview14"
     pagecolor="#505050"
     bordercolor="#ffffff"
     borderopacity="1"
     inkscape:showpageshadow="0"
     inkscape:pageopacity="0"
     inkscape:pagecheckerboard="1"
     inkscape:deskcolor="#505050"
     showgrid="false"
     inkscape:zoom="29.8125"
     inkscape:cx="8.0167715"
     inkscape:cy="8.0167715"
     inkscape:window-width="1280"
     inkscape:window-height="657"
     inkscape:window-x="-8"
     inkscape:window-y="32"
     inkscape:window-maximized="1"
     inkscape:current-layer="svg12" />
  <path
     fill-rule="evenodd"
     d="M8 5a2 2 0 1 1-4 0 2 2 0 0 1 4 0zM6 8a3 3 0 1 0 0-6 3 3 0 0 0 0 6zm6 5c0 1-1 1-1 1H1s-1 0-1-1 1-4 6-4 6 3 6 4zm-1-.004c-.001-.246-.154-.986-.832-1.664C9.516 10.68 8.289 10 6 10c-2.29 0-3.516.68-4.168 1.332-.678.678-.83 1.418-.832 1.664h10zm4.854-7.85a.5.5 0 0 1 0 .708l-3 3a.5.5 0 0 1-.708 0l-1.5-1.5a.5.5 0 0 1 .708-.708L12.5 7.793l2.646-2.647a.5.5 0 0 1 .708 0z"
     id="path10"
     style="fill:#e5f4f7;fill-opacity:1" />
</svg>
